<svg xmlns="http://www.w3.org/2000/svg" xml:space="preserve" version="1.1">
<defs>
    <symbol id="updown" viewbox="0 -10 100 110">
      <g>
        <path
          style="fill-opacity: var(--up-opacity, 1); fill: var(--up-color, #888888);"
          d="M1.5 6.5l6 -6 5.962 6c-0.984,0 -4.962,0 -11.962,0z"
        />
        <path
          style="fill-opacity: var(--down-opacity, 1); fill: var(--down-color, #888888);"
          d="M13.5 9.5l-6 6 -6 -6c0,0 12,0 12,0z"
        />
      </g>
    </symbol>
    <symbol id="x" viewBox="0 0 24 24" stroke="currentColor" stroke-width="2" stroke-linecap="round" stroke-linejoin="round">
      <line x1="18" y1="6" x2="6" y2="18"></line>
      <line x1="6" y1="6" x2="18" y2="18"></line>
    </symbol>
    <symbol id="arrow-left" viewBox="0 0 24 24" fill="none" stroke="currentColor" stroke-width="2" stroke-linecap="round" stroke-linejoin="round">
      <line x1="19" y1="12" x2="5" y2="12"></line>
      <polyline points="12 19 5 12 12 5"></polyline>
    </symbol>
    <symbol id="arrow-right" viewBox="0 0 24 24" fill="none" stroke="currentColor" stroke-width="2" stroke-linecap="round" stroke-linejoin="round">
      <line x1="5" y1="12" x2="19" y2="12"></line>
      <polyline points="12 5 19 12 12 19"></polyline>
    </symbol>
    <symbol id="gear" viewBox="0 0 24 24" fill="none" stroke="currentColor" stroke-width="2" stroke-linecap="round" stroke-linejoin="round" class="lucide lucide-settings">
      <path d="M12.22 2h-.44a2 2 0 0 0-2 2v.18a2 2 0 0 1-1 1.73l-.43.25a2 2 0 0 1-2 0l-.15-.08a2 2 0 0 0-2.73.73l-.22.38a2 2 0 0 0 .73 2.73l.15.1a2 2 0 0 1 1 1.72v.51a2 2 0 0 1-1 1.74l-.15.09a2 2 0 0 0-.73 2.73l.22.38a2 2 0 0 0 2.73.73l.15-.08a2 2 0 0 1 2 0l.43.25a2 2 0 0 1 1 1.73V20a2 2 0 0 0 2 2h.44a2 2 0 0 0 2-2v-.18a2 2 0 0 1 1-1.73l.43-.25a2 2 0 0 1 2 0l.15.08a2 2 0 0 0 2.73-.73l.22-.39a2 2 0 0 0-.73-2.73l-.15-.08a2 2 0 0 1-1-1.74v-.5a2 2 0 0 1 1-1.74l.15-.09a2 2 0 0 0 .73-2.73l-.22-.38a2 2 0 0 0-2.73-.73l-.15.08a2 2 0 0 1-2 0l-.43-.25a2 2 0 0 1-1-1.73V4a2 2 0 0 0-2-2z"></path>
      <circle cx="12" cy="12" r="3"></circle>
    </symbol>
    <symbol id="checkmark" xml:space="preserve" viewBox="0 0 100 100" style="width:100%;height:100%;background-size:initial;background-repeat-y:initial;background-repeat-x:initial;background-position-y:initial;background-position-x:initial;background-origin:initial;background-color:initial;background-clip:initial;background-attachment:initial;animation-play-state:paused" xmlns="http://www.w3.org/2000/svg">
    <g class="aldl-scale" style="transform-origin:50% 50%;transform:rotate(0deg) scale(.8,.8);animation-play-state:paused">
      <circle stroke-miterlimit="10" stroke-width="8" stroke="#333" fill="none" r="40" cy="50" cx="50" style="stroke:#28292f;animation-play-state:paused"/>
      <g style="animation-play-state:paused">
      <path d="M43.7 69.4 25 47.7l3.9-3.9 14.8 12.6 28.6-25.8 2.7 2.7z" fill="#abbd81" style="fill:#0a0a0a;animation-play-state:paused"/>
      </g>
      </g>
    </symbol>
  </defs>
</svg>